<mxfile host="65bd71144e">
    <diagram id="YDx1Ru3K-DV0WDpNbGao" name="Page-1">
        <mxGraphModel dx="747" dy="1544" grid="1" gridSize="10" guides="1" tooltips="1" connect="1" arrows="1" fold="1" page="1" pageScale="1" pageWidth="850" pageHeight="1100" math="0" shadow="0">
            <root>
                <mxCell id="0"/>
                <mxCell id="1" parent="0"/>
                <mxCell id="11" style="edgeStyle=orthogonalEdgeStyle;html=1;" parent="1" source="2" target="3" edge="1">
                    <mxGeometry relative="1" as="geometry"/>
                </mxCell>
                <mxCell id="12" style="edgeStyle=orthogonalEdgeStyle;html=1;" parent="1" source="2" target="5" edge="1">
                    <mxGeometry relative="1" as="geometry"/>
                </mxCell>
                <mxCell id="13" style="edgeStyle=orthogonalEdgeStyle;html=1;" parent="1" source="2" target="4" edge="1">
                    <mxGeometry relative="1" as="geometry"/>
                </mxCell>
                <mxCell id="16" style="edgeStyle=orthogonalEdgeStyle;html=1;entryX=0.5;entryY=0;entryDx=0;entryDy=0;" parent="1" source="2" target="15" edge="1">
                    <mxGeometry relative="1" as="geometry"/>
                </mxCell>
                <mxCell id="22" value="PROPS onAdd" style="edgeLabel;html=1;align=center;verticalAlign=middle;resizable=0;points=[];" parent="16" vertex="1" connectable="0">
                    <mxGeometry x="0.4738" y="-1" relative="1" as="geometry">
                        <mxPoint as="offset"/>
                    </mxGeometry>
                </mxCell>
                <mxCell id="2" value="&amp;lt;Products /&amp;gt;" style="rounded=0;whiteSpace=wrap;html=1;" parent="1" vertex="1">
                    <mxGeometry x="360" y="-40" width="210" height="40" as="geometry"/>
                </mxCell>
                <mxCell id="3" value="&amp;lt;SingleProduct /&amp;gt;" style="rounded=0;whiteSpace=wrap;html=1;" parent="1" vertex="1">
                    <mxGeometry x="180" y="210" width="120" height="60" as="geometry"/>
                </mxCell>
                <mxCell id="4" value="&amp;lt;SingleProduct /&amp;gt;" style="rounded=0;whiteSpace=wrap;html=1;" parent="1" vertex="1">
                    <mxGeometry x="370" y="210" width="120" height="60" as="geometry"/>
                </mxCell>
                <mxCell id="5" value="&amp;lt;SingleProduct /&amp;gt;" style="rounded=0;whiteSpace=wrap;html=1;" parent="1" vertex="1">
                    <mxGeometry x="550" y="210" width="120" height="60" as="geometry"/>
                </mxCell>
                <mxCell id="6" value="&lt;div style=&quot;background-color: rgb(25 , 53 , 73) ; font-family: &amp;#34;cascadia code&amp;#34; , &amp;#34;menlo&amp;#34; , &amp;#34;monaco&amp;#34; , &amp;#34;courier new&amp;#34; , monospace , &amp;#34;consolas&amp;#34; , &amp;#34;courier new&amp;#34; , monospace ; font-size: 15px ; line-height: 20px&quot;&gt;&lt;span style=&quot;color: rgb(255 , 255 , 255)&quot;&gt;mainProductsArray&lt;/span&gt;&lt;font color=&quot;#e1efff&quot;&gt;&amp;nbsp;[]&lt;/font&gt;&lt;/div&gt;" style="rounded=0;whiteSpace=wrap;html=1;" parent="1" vertex="1">
                    <mxGeometry x="360" width="210" height="40" as="geometry"/>
                </mxCell>
                <mxCell id="7" value="&lt;div style=&quot;color: rgb(255 , 255 , 255) ; background-color: rgb(25 , 53 , 73) ; font-family: &amp;#34;cascadia code&amp;#34; , &amp;#34;menlo&amp;#34; , &amp;#34;monaco&amp;#34; , &amp;#34;courier new&amp;#34; , monospace , &amp;#34;consolas&amp;#34; , &amp;#34;courier new&amp;#34; , monospace ; font-size: 15px ; line-height: 20px&quot;&gt;&lt;span style=&quot;color: rgb(255 , 198 , 0) ; font-family: &amp;#34;cascadia code&amp;#34; , &amp;#34;menlo&amp;#34; , &amp;#34;monaco&amp;#34; , &amp;#34;courier new&amp;#34; , monospace , &amp;#34;consolas&amp;#34; , &amp;#34;courier new&amp;#34; , monospace&quot;&gt;setMainProductsArray()&lt;/span&gt;&lt;br&gt;&lt;/div&gt;" style="rounded=0;whiteSpace=wrap;html=1;" parent="1" vertex="1">
                    <mxGeometry x="360" y="40" width="210" height="40" as="geometry"/>
                </mxCell>
                <mxCell id="8" value="&lt;div style=&quot;background-color: rgb(25 , 53 , 73) ; font-family: &amp;#34;cascadia code&amp;#34; , &amp;#34;menlo&amp;#34; , &amp;#34;monaco&amp;#34; , &amp;#34;courier new&amp;#34; , monospace , &amp;#34;consolas&amp;#34; , &amp;#34;courier new&amp;#34; , monospace ; font-size: 15px ; line-height: 20px&quot;&gt;&lt;font color=&quot;#ffc600&quot;&gt;productDeleteHandler(idToDelete)&lt;/font&gt;&lt;/div&gt;" style="rounded=0;whiteSpace=wrap;html=1;" parent="1" vertex="1">
                    <mxGeometry x="360" y="80" width="300" height="40" as="geometry"/>
                </mxCell>
                <mxCell id="10" style="edgeStyle=orthogonalEdgeStyle;html=1;entryX=0;entryY=0.5;entryDx=0;entryDy=0;" parent="1" source="9" target="8" edge="1">
                    <mxGeometry relative="1" as="geometry">
                        <Array as="points">
                            <mxPoint x="40" y="290"/>
                            <mxPoint x="40" y="100"/>
                        </Array>
                    </mxGeometry>
                </mxCell>
                <mxCell id="9" value="&lt;div style=&quot;color: rgb(255 , 255 , 255) ; background-color: rgb(25 , 53 , 73) ; font-family: &amp;#34;cascadia code&amp;#34; , &amp;#34;menlo&amp;#34; , &amp;#34;monaco&amp;#34; , &amp;#34;courier new&amp;#34; , monospace , &amp;#34;consolas&amp;#34; , &amp;#34;courier new&amp;#34; , monospace ; font-size: 15px ; line-height: 20px&quot;&gt;&lt;span style=&quot;color: #e1efff&quot;&gt;&amp;lt;&lt;/span&gt;&lt;span style=&quot;color: #9effff&quot;&gt;button&lt;/span&gt;&lt;span style=&quot;color: #e1efff&quot;&gt;&amp;gt;&lt;/span&gt;delete&lt;span style=&quot;color: #e1efff&quot;&gt;&amp;lt;/&lt;/span&gt;&lt;span style=&quot;color: #9effff&quot;&gt;button&lt;/span&gt;&lt;span style=&quot;color: #e1efff&quot;&gt;&amp;gt;&lt;/span&gt;&lt;/div&gt;" style="rounded=0;whiteSpace=wrap;html=1;" parent="1" vertex="1">
                    <mxGeometry x="80" y="270" width="220" height="40" as="geometry"/>
                </mxCell>
                <mxCell id="14" value="&lt;div style=&quot;color: rgb(255 , 255 , 255) ; background-color: rgb(25 , 53 , 73) ; font-family: &amp;quot;cascadia code&amp;quot; , &amp;quot;menlo&amp;quot; , &amp;quot;monaco&amp;quot; , &amp;quot;courier new&amp;quot; , monospace , &amp;quot;consolas&amp;quot; , &amp;quot;courier new&amp;quot; , monospace ; font-size: 15px ; line-height: 20px&quot;&gt;&lt;div&gt;&lt;span style=&quot;color: #e1efff&quot;&gt;&amp;lt;&lt;/span&gt;&lt;span style=&quot;color: #80ffbb&quot;&gt;SingleProduct&lt;/span&gt;&lt;/div&gt;&lt;div&gt;&lt;span style=&quot;color: #9effff&quot;&gt;&amp;nbsp; &amp;nbsp; &amp;nbsp; &amp;nbsp; &amp;nbsp; &amp;nbsp; &lt;/span&gt;&lt;span style=&quot;color: #ffc600 ; font-style: italic&quot;&gt;key&lt;/span&gt;&lt;span style=&quot;color: #ff9d00&quot;&gt;=&lt;/span&gt;&lt;span style=&quot;color: #e1efff&quot;&gt;{&lt;/span&gt;&lt;span style=&quot;color: #e1efff&quot;&gt;pObj&lt;/span&gt;&lt;span style=&quot;color: #e1efff&quot;&gt;.id}&lt;/span&gt;&lt;/div&gt;&lt;div&gt;&lt;span style=&quot;color: #9effff&quot;&gt;&amp;nbsp; &amp;nbsp; &amp;nbsp; &amp;nbsp; &amp;nbsp; &amp;nbsp; &lt;/span&gt;&lt;span style=&quot;color: #ffc600 ; font-style: italic&quot;&gt;id&lt;/span&gt;&lt;span style=&quot;color: #ff9d00&quot;&gt;=&lt;/span&gt;&lt;span style=&quot;color: #e1efff&quot;&gt;{&lt;/span&gt;&lt;span style=&quot;color: #e1efff&quot;&gt;pObj&lt;/span&gt;&lt;span style=&quot;color: #e1efff&quot;&gt;.id}&lt;/span&gt;&lt;/div&gt;&lt;div&gt;&lt;span style=&quot;color: #9effff&quot;&gt;&amp;nbsp; &amp;nbsp; &amp;nbsp; &amp;nbsp; &amp;nbsp; &amp;nbsp; &lt;/span&gt;&lt;span style=&quot;color: #ffc600 ; font-style: italic&quot;&gt;price&lt;/span&gt;&lt;span style=&quot;color: #ff9d00&quot;&gt;=&lt;/span&gt;&lt;span style=&quot;color: #e1efff&quot;&gt;{&lt;/span&gt;&lt;span style=&quot;color: #e1efff&quot;&gt;pObj&lt;/span&gt;&lt;span style=&quot;color: #e1efff&quot;&gt;.price}&lt;/span&gt;&lt;/div&gt;&lt;div&gt;&lt;span style=&quot;color: #9effff&quot;&gt;&amp;nbsp; &amp;nbsp; &amp;nbsp; &amp;nbsp; &amp;nbsp; &amp;nbsp; &lt;/span&gt;&lt;span style=&quot;color: #ffc600 ; font-style: italic&quot;&gt;image&lt;/span&gt;&lt;span style=&quot;color: #ff9d00&quot;&gt;=&lt;/span&gt;&lt;span style=&quot;color: #e1efff&quot;&gt;{&lt;/span&gt;&lt;span style=&quot;color: #e1efff&quot;&gt;pObj&lt;/span&gt;&lt;span style=&quot;color: #e1efff&quot;&gt;.image}&lt;/span&gt;&lt;/div&gt;&lt;div&gt;&lt;span style=&quot;color: #9effff&quot;&gt;&amp;nbsp; &amp;nbsp; &amp;nbsp; &amp;nbsp; &amp;nbsp; &amp;nbsp; &lt;/span&gt;&lt;span style=&quot;color: #ffc600 ; font-style: italic&quot;&gt;onDelete&lt;/span&gt;&lt;span style=&quot;color: #ff9d00&quot;&gt;=&lt;/span&gt;&lt;span style=&quot;color: #e1efff&quot;&gt;{&lt;/span&gt;&lt;span style=&quot;color: #ffc600&quot;&gt;productDeleteHandler&lt;/span&gt;&lt;span style=&quot;color: #e1efff&quot;&gt;}&lt;/span&gt;&lt;/div&gt;&lt;div&gt;&lt;span style=&quot;color: #9effff&quot;&gt;&amp;nbsp; &amp;nbsp; &amp;nbsp; &amp;nbsp; &amp;nbsp; &lt;/span&gt;&lt;span style=&quot;color: #e1efff&quot;&gt;&amp;gt;&lt;/span&gt;&lt;/div&gt;&lt;div&gt;&amp;nbsp; &amp;nbsp; &amp;nbsp; &amp;nbsp; &amp;nbsp; &amp;nbsp; &lt;span style=&quot;color: #e1efff&quot;&gt;{&lt;/span&gt;&lt;span style=&quot;color: #e1efff&quot;&gt;pObj&lt;/span&gt;&lt;span style=&quot;color: #e1efff&quot;&gt;.title&lt;/span&gt;&lt;span style=&quot;color: #e1efff&quot;&gt;}&lt;/span&gt;&lt;/div&gt;&lt;div&gt;&amp;nbsp; &amp;nbsp; &amp;nbsp; &amp;nbsp; &amp;nbsp; &lt;span style=&quot;color: #e1efff&quot;&gt;&amp;lt;/&lt;/span&gt;&lt;span style=&quot;color: #80ffbb&quot;&gt;SingleProduct&lt;/span&gt;&lt;span style=&quot;color: #e1efff&quot;&gt;&amp;gt;&lt;/span&gt;&lt;/div&gt;&lt;/div&gt;" style="rounded=0;whiteSpace=wrap;html=1;align=left;" parent="1" vertex="1">
                    <mxGeometry x="70" y="350" width="410" height="230" as="geometry"/>
                </mxCell>
                <mxCell id="15" value="&lt;div style=&quot;color: rgb(255 , 255 , 255) ; background-color: rgb(25 , 53 , 73) ; font-family: &amp;#34;cascadia code&amp;#34; , &amp;#34;menlo&amp;#34; , &amp;#34;monaco&amp;#34; , &amp;#34;courier new&amp;#34; , monospace , &amp;#34;consolas&amp;#34; , &amp;#34;courier new&amp;#34; , monospace ; font-size: 15px ; line-height: 20px&quot;&gt;&lt;span style=&quot;color: #e1efff&quot;&gt;&amp;lt;&lt;/span&gt;&lt;span style=&quot;color: #80ffbb&quot;&gt;AddProduct&lt;/span&gt;&lt;span style=&quot;color: #9effff&quot;&gt; &lt;/span&gt;&lt;span style=&quot;color: #e1efff&quot;&gt;/&amp;gt;&lt;/span&gt;&lt;/div&gt;" style="rounded=0;whiteSpace=wrap;html=1;" parent="1" vertex="1">
                    <mxGeometry x="780" y="210" width="150" height="60" as="geometry"/>
                </mxCell>
                <mxCell id="17" value="&lt;div style=&quot;background-color: rgb(25 , 53 , 73) ; font-family: &amp;#34;cascadia code&amp;#34; , &amp;#34;menlo&amp;#34; , &amp;#34;monaco&amp;#34; , &amp;#34;courier new&amp;#34; , monospace , &amp;#34;consolas&amp;#34; , &amp;#34;courier new&amp;#34; , monospace ; font-size: 15px ; line-height: 20px&quot;&gt;&lt;font color=&quot;#ffc600&quot;&gt;productAddHandler(newProdObj)&lt;/font&gt;&lt;/div&gt;" style="rounded=0;whiteSpace=wrap;html=1;" parent="1" vertex="1">
                    <mxGeometry x="360" y="-80" width="300" height="40" as="geometry"/>
                </mxCell>
                <mxCell id="18" value="&lt;div style=&quot;color: rgb(255 , 255 , 255) ; background-color: rgb(25 , 53 , 73) ; font-family: &amp;#34;cascadia code&amp;#34; , &amp;#34;menlo&amp;#34; , &amp;#34;monaco&amp;#34; , &amp;#34;courier new&amp;#34; , monospace , &amp;#34;consolas&amp;#34; , &amp;#34;courier new&amp;#34; , monospace ; font-size: 15px ; line-height: 20px&quot;&gt;&lt;span style=&quot;color: #e1efff&quot;&gt;&amp;lt;&lt;/span&gt;&lt;span style=&quot;color: #80ffbb&quot;&gt;Form&lt;/span&gt;&lt;span style=&quot;color: #9effff&quot;&gt;&amp;nbsp;&lt;/span&gt;&lt;span style=&quot;color: #e1efff&quot;&gt;/&amp;gt;&lt;/span&gt;&lt;/div&gt;" style="rounded=0;whiteSpace=wrap;html=1;" parent="1" vertex="1">
                    <mxGeometry x="780" y="270" width="150" height="60" as="geometry"/>
                </mxCell>
                <mxCell id="19" value="&lt;div style=&quot;background-color: rgb(25 , 53 , 73) ; font-family: &amp;#34;cascadia code&amp;#34; , &amp;#34;menlo&amp;#34; , &amp;#34;monaco&amp;#34; , &amp;#34;courier new&amp;#34; , monospace , &amp;#34;consolas&amp;#34; , &amp;#34;courier new&amp;#34; , monospace ; font-size: 15px ; line-height: 20px&quot;&gt;&lt;font color=&quot;#e1efff&quot;&gt;newProdObj&lt;/font&gt;&lt;/div&gt;" style="rounded=0;whiteSpace=wrap;html=1;" parent="1" vertex="1">
                    <mxGeometry x="780" y="330" width="150" height="60" as="geometry"/>
                </mxCell>
                <mxCell id="21" style="edgeStyle=orthogonalEdgeStyle;html=1;entryX=1;entryY=0.5;entryDx=0;entryDy=0;" parent="1" source="20" target="17" edge="1">
                    <mxGeometry relative="1" as="geometry">
                        <Array as="points">
                            <mxPoint x="1050" y="420"/>
                            <mxPoint x="1050" y="-60"/>
                        </Array>
                    </mxGeometry>
                </mxCell>
                <mxCell id="20" value="&lt;div style=&quot;background-color: rgb(25 , 53 , 73) ; font-family: &amp;#34;cascadia code&amp;#34; , &amp;#34;menlo&amp;#34; , &amp;#34;monaco&amp;#34; , &amp;#34;courier new&amp;#34; , monospace , &amp;#34;consolas&amp;#34; , &amp;#34;courier new&amp;#34; , monospace ; font-size: 15px ; line-height: 20px&quot;&gt;&lt;font color=&quot;#e1efff&quot;&gt;call props.&lt;/font&gt;&lt;span style=&quot;color: rgb(255 , 198 , 0) ; font-size: 14px ; font-style: italic&quot;&gt;onAddProduct&lt;/span&gt;&lt;font color=&quot;#e1efff&quot;&gt;()&lt;/font&gt;&lt;/div&gt;" style="rounded=0;whiteSpace=wrap;html=1;" parent="1" vertex="1">
                    <mxGeometry x="780" y="390" width="200" height="60" as="geometry"/>
                </mxCell>
                <mxCell id="23" value="&lt;div style=&quot;background-color: rgb(25 , 53 , 73) ; font-family: &amp;#34;cascadia code&amp;#34; , &amp;#34;menlo&amp;#34; , &amp;#34;monaco&amp;#34; , &amp;#34;courier new&amp;#34; , monospace , &amp;#34;consolas&amp;#34; , &amp;#34;courier new&amp;#34; , monospace ; font-size: 15px ; line-height: 20px&quot;&gt;&lt;div style=&quot;color: rgb(255 , 255 , 255) ; font-family: &amp;#34;cascadia code&amp;#34; , &amp;#34;menlo&amp;#34; , &amp;#34;monaco&amp;#34; , &amp;#34;courier new&amp;#34; , monospace , &amp;#34;consolas&amp;#34; , &amp;#34;courier new&amp;#34; , monospace ; font-size: 14px ; line-height: 19px&quot;&gt;&lt;span style=&quot;color: #ffc600 ; font-style: italic&quot;&gt;onAddProduct&lt;/span&gt;&lt;span style=&quot;color: #ff9d00&quot;&gt;=&lt;/span&gt;&lt;span style=&quot;color: #e1efff&quot;&gt;{&lt;/span&gt;&lt;span style=&quot;color: #ffc600&quot;&gt;productAddHandler&lt;/span&gt;&lt;span style=&quot;color: #e1efff&quot;&gt;}&lt;/span&gt;&lt;/div&gt;&lt;/div&gt;" style="rounded=0;whiteSpace=wrap;html=1;" vertex="1" parent="1">
                    <mxGeometry x="710" y="20" width="300" height="40" as="geometry"/>
                </mxCell>
            </root>
        </mxGraphModel>
    </diagram>
</mxfile>